<svg width="30" height="32" viewBox="0 0 30 32" fill="none" xmlns="http://www.w3.org/2000/svg">
<rect y="0.68335" width="30" height="30.3625" rx="15" fill="white"/>
<path d="M15.6386 19.0566L12.4938 15.9118C12.4254 15.8434 12.3771 15.7693 12.3489 15.6896C12.3201 15.6098 12.3058 15.5244 12.3058 15.4332C12.3058 15.3421 12.3201 15.2566 12.3489 15.1768C12.3771 15.0971 12.4254 15.023 12.4938 14.9546L15.6386 11.8098C15.7639 11.6845 15.9235 11.6218 16.1172 11.6218C16.3109 11.6218 16.4704 11.6845 16.5957 11.8098C16.7211 11.9352 16.7837 12.0947 16.7837 12.2884C16.7837 12.4821 16.7211 12.6416 16.5957 12.767L13.9295 15.4332L16.5957 18.0995C16.7211 18.2248 16.7837 18.3843 16.7837 18.578C16.7837 18.7717 16.7211 18.9312 16.5957 19.0566C16.4704 19.1819 16.3109 19.2446 16.1172 19.2446C15.9235 19.2446 15.7639 19.1819 15.6386 19.0566Z" fill="#6A00A6"/>
</svg>
